<svg width="53" height="53" viewBox="0 0 53 53" fill="none" xmlns="http://www.w3.org/2000/svg">
<g clip-path="url(#clip0_9_2)">
<path d="M52.0308 24.1571L28.8797 1.00605C28.2405 0.355078 27.3647 0 26.4652 0C25.5656 0 24.6898 0.355078 24.0506 0.994219L19.2334 5.79961L25.3289 11.8951C28.5364 10.818 31.5664 13.8836 30.4657 17.0674L36.3482 22.9499C40.3961 21.5532 43.5918 26.619 40.5499 29.6609C37.4134 32.7974 32.2411 29.3176 33.9218 25.2461L28.4418 19.766V34.194C31.4362 35.6735 31.0812 39.1414 29.5188 40.7038C28.7613 41.4613 27.7198 41.8992 26.6427 41.8992C25.5656 41.8992 24.5359 41.4731 23.7666 40.7038C21.6834 38.6207 22.4528 35.1527 25.0922 34.0757V19.5175C22.6303 18.5114 22.1805 15.8838 22.8907 14.1913L16.878 8.1668L1.00605 24.0388C0.355078 24.6898 0 25.5538 0 26.4533C0 27.3528 0.355078 28.2287 1.00605 28.8678L24.1571 52.0308C24.7963 52.6699 25.6603 53.025 26.5717 53.025C27.483 53.025 28.3471 52.6699 28.9862 52.0308L52.0308 28.9862C52.6699 28.3471 53.025 27.4712 53.025 26.5717C53.025 25.6721 52.6699 24.7963 52.0308 24.1571Z" fill="url(#paint0_linear_9_2)"/>
</g>
<defs>
<linearGradient id="paint0_linear_9_2" x1="26.5125" y1="0" x2="26.5125" y2="53.025" gradientUnits="userSpaceOnUse">
<stop stop-color="#FC6D26"/>
<stop offset="1" stop-color="#E24329"/>
</linearGradient>
<clipPath id="clip0_9_2">
<rect width="53" height="53" fill="white"/>
</clipPath>
</defs>
</svg>
