<svg width="59" height="57" viewBox="0 0 59 57" fill="none" xmlns="http://www.w3.org/2000/svg">
<g clip-path="url(#clip0_9_3)">
<path d="M19.6358 46.0891C19.6358 46.3259 19.3636 46.5152 19.0204 46.5152C18.6298 46.5507 18.3575 46.3614 18.3575 46.0891C18.3575 45.8524 18.6298 45.663 18.973 45.663C19.3281 45.6275 19.6358 45.8169 19.6358 46.0891ZM15.9548 45.5565C15.872 45.7932 16.1087 46.0655 16.4638 46.1365C16.7715 46.2548 17.1266 46.1365 17.1976 45.8998C17.2686 45.663 17.0438 45.3908 16.6887 45.2843C16.3809 45.2014 16.0377 45.3198 15.9548 45.5565ZM21.1863 45.3553C20.8431 45.4382 20.6064 45.663 20.6419 45.9353C20.6774 46.172 20.9851 46.3259 21.3402 46.243C21.6834 46.1602 21.9202 45.9353 21.8846 45.6986C21.8491 45.4737 21.5296 45.3198 21.1863 45.3553ZM28.9744 0C12.5579 0 0 12.4632 0 28.8797C0 42.0057 8.26149 53.238 20.0619 57.1913C21.5769 57.4635 22.1095 56.5284 22.1095 55.7591C22.1095 55.0253 22.074 50.9774 22.074 48.4918C22.074 48.4918 13.7889 50.2672 12.049 44.9647C12.049 44.9647 10.6997 41.5205 8.75859 40.6328C8.75859 40.6328 6.04816 38.7745 8.94797 38.81C8.94797 38.81 11.8951 39.0468 13.5166 41.8637C16.1087 46.4324 20.4525 45.1186 22.145 44.3374C22.4173 42.4437 23.1866 41.1299 24.0388 40.3487C17.4225 39.6149 10.747 38.6562 10.747 27.27C10.747 24.0151 11.6466 22.3818 13.5403 20.2986C13.2326 19.5293 12.2265 16.3573 13.848 12.262C16.3218 11.4927 22.0148 15.4577 22.0148 15.4577C24.382 14.7949 26.9268 14.4517 29.4478 14.4517C31.9689 14.4517 34.5136 14.7949 36.8808 15.4577C36.8808 15.4577 42.5739 11.4809 45.0476 12.262C46.6691 16.3691 45.6631 19.5293 45.3553 20.2986C47.2491 22.3936 48.409 24.027 48.409 27.27C48.409 38.6917 41.4376 39.603 34.8213 40.3487C35.9102 41.2838 36.8334 43.0591 36.8334 45.8406C36.8334 49.8293 36.7979 54.7649 36.7979 55.7354C36.7979 56.5048 37.3424 57.4398 38.8456 57.1676C50.6815 53.238 58.7063 42.0057 58.7063 28.8797C58.7063 12.4632 45.3908 0 28.9744 0ZM11.5045 40.8221C11.3507 40.9405 11.3862 41.2127 11.5874 41.4376C11.7768 41.627 12.049 41.7098 12.2029 41.556C12.3567 41.4376 12.3212 41.1654 12.12 40.9405C11.9306 40.7511 11.6584 40.6683 11.5045 40.8221ZM10.2262 39.8634C10.1434 40.0173 10.2618 40.2067 10.4985 40.325C10.6879 40.4434 10.9246 40.4079 11.0074 40.2422C11.0903 40.0883 10.9719 39.8989 10.7352 39.7806C10.4985 39.7096 10.3091 39.7451 10.2262 39.8634ZM14.0611 44.077C13.8717 44.2309 13.9427 44.586 14.215 44.8109C14.4872 45.0831 14.8304 45.1186 14.9843 44.9292C15.1382 44.7754 15.0671 44.4203 14.8304 44.1954C14.57 43.9232 14.215 43.8877 14.0611 44.077ZM12.7118 42.3372C12.5224 42.4555 12.5224 42.7632 12.7118 43.0355C12.9012 43.3077 13.2207 43.4261 13.3746 43.3077C13.564 43.1538 13.564 42.8461 13.3746 42.5739C13.2089 42.3016 12.9012 42.1833 12.7118 42.3372Z" fill="url(#paint0_linear_9_3)"/>
</g>
<defs>
<linearGradient id="paint0_linear_9_3" x1="29.3531" y1="0" x2="29.3531" y2="57.2395" gradientUnits="userSpaceOnUse">
<stop stop-color="#812593"/>
<stop offset="1" stop-color="#4A2679"/>
</linearGradient>
<clipPath id="clip0_9_3">
<rect width="59" height="57" fill="white"/>
</clipPath>
</defs>
</svg>
