<svg width="53" height="53" viewBox="0 0 53 53" fill="none" xmlns="http://www.w3.org/2000/svg">
<g clip-path="url(#clip0_9_6)">
<path d="M0 0V52.5H53.025V0H0ZM28.856 40.9453C28.856 46.0547 25.826 48.3867 21.4112 48.3867C17.4225 48.3867 15.1145 46.3477 13.9309 43.875L17.9906 41.4492C18.7718 42.8203 19.482 43.9805 21.1982 43.9805C22.8315 43.9805 23.8731 43.3477 23.8731 40.875V24.1055H28.856V40.9453ZM40.6446 48.3867C36.0168 48.3867 33.0223 46.207 31.5664 43.3477L35.6262 41.0273C36.6914 42.75 38.088 44.0273 40.5381 44.0273C42.5975 44.0273 43.9232 43.0078 43.9232 41.5898C43.9232 39.9023 42.5739 39.3047 40.2895 38.3086L39.0468 37.7812C35.4486 36.2695 33.0696 34.3594 33.0696 30.3398C33.0696 26.6367 35.9221 23.8242 40.3605 23.8242C43.5326 23.8242 45.8051 24.9141 47.4384 27.7734L43.5562 30.2344C42.7041 28.7227 41.7809 28.125 40.3487 28.125C38.8929 28.125 37.9697 29.0391 37.9697 30.2344C37.9697 31.7109 38.8929 32.3086 41.0352 33.2344L42.278 33.7617C46.5152 35.5547 48.8943 37.3945 48.8943 41.5195C48.8943 45.9492 45.3671 48.3867 40.6446 48.3867Z" fill="url(#paint0_linear_9_6)"/>
</g>
<defs>
<linearGradient id="paint0_linear_9_6" x1="26.5125" y1="0" x2="26.5125" y2="52.5" gradientUnits="userSpaceOnUse">
<stop stop-color="#FEE71D"/>
<stop offset="1" stop-color="#FFC617"/>
</linearGradient>
<clipPath id="clip0_9_6">
<rect width="53" height="53" fill="white"/>
</clipPath>
</defs>
</svg>
