<svg width="127" height="50" viewBox="0 0 127 50" fill="none" xmlns="http://www.w3.org/2000/svg">
<path d="M83.4414 45.6904C83.3013 46.1172 83.2619 46.5402 83.3555 46.9463V46.9473C83.506 47.7998 83.8934 48.492 84.5381 48.9756L84.5566 48.9902L84.5762 49.002C84.7274 49.095 84.8841 49.1759 85.0449 49.2471C84.476 49.1353 83.982 48.9633 83.5605 48.7314C82.6996 48.2578 82.5002 47.8796 82.5 47.6523C82.5 47.5468 82.5348 47.3681 82.6445 47.0986C82.7519 46.835 82.9188 46.513 83.1523 46.1309C83.2462 45.9773 83.3431 45.8307 83.4414 45.6904ZM90.0176 33.6768C89.7664 33.7982 89.5325 33.9546 89.3193 34.1484L89.3105 34.1562L89.3027 34.1641C88.7359 34.7309 88.4961 35.541 88.4961 36.498C88.4961 37.2892 88.6949 38.0516 89.083 38.7793L89.0928 38.7969L89.1035 38.8145C89.5011 39.4329 89.9209 40.0733 90.3623 40.7354L90.373 40.752L90.3848 40.7666C90.8442 41.3513 91.2423 42.0012 91.5791 42.7168L91.5869 42.7334L91.5967 42.749C91.9468 43.3715 92.126 44.078 92.126 44.8799C92.126 46.1523 91.6755 47.2099 90.7627 48.083L90.7549 48.0908C90.3391 48.5066 89.8039 48.8294 89.1387 49.0508C89.3784 48.9105 89.5983 48.7423 89.7979 48.5449L89.7988 48.5459C90.5681 47.828 90.9482 46.8991 90.9482 45.8037C90.9482 44.9998 90.7807 44.2447 90.4443 43.5449L90.29 43.249C89.887 42.489 89.4392 41.7721 88.9463 41.0986C88.5168 40.4113 88.1087 39.7453 87.7217 39.1006C87.4085 38.4699 87.252 37.8023 87.252 37.0918C87.252 36.0903 87.6099 35.2561 88.3408 34.5596C88.8001 34.1463 89.3554 33.8494 90.0176 33.6768ZM92.8115 33.6553C93.048 33.7195 93.2591 33.8021 93.4453 33.9023L93.4648 33.9131L93.4854 33.9219C93.7626 34.0408 93.93 34.1527 94.0215 34.2441C94.1048 34.3274 94.1064 34.3721 94.1064 34.3857C94.1064 34.7079 94.0458 35.0795 93.9209 35.5049C93.9038 35.3453 93.8757 35.1904 93.833 35.041H93.832C93.6979 34.5168 93.4344 34.0804 93.0156 33.7812C92.9503 33.7346 92.8816 33.6936 92.8115 33.6553Z" stroke="black"/>
<path d="M95.4414 45.6904C95.3013 46.1172 95.2619 46.5402 95.3555 46.9463V46.9473C95.506 47.7998 95.8934 48.492 96.5381 48.9756L96.5566 48.9902L96.5762 49.002C96.7274 49.095 96.8841 49.1759 97.0449 49.2471C96.476 49.1353 95.982 48.9633 95.5605 48.7314C94.6996 48.2578 94.5002 47.8796 94.5 47.6523C94.5 47.5468 94.5348 47.3681 94.6445 47.0986C94.7519 46.835 94.9188 46.513 95.1523 46.1309C95.2462 45.9773 95.3431 45.8307 95.4414 45.6904ZM102.018 33.6768C101.766 33.7982 101.533 33.9546 101.319 34.1484L101.311 34.1562L101.303 34.1641C100.736 34.7309 100.496 35.541 100.496 36.498C100.496 37.2892 100.695 38.0516 101.083 38.7793L101.093 38.7969L101.104 38.8145C101.501 39.4329 101.921 40.0733 102.362 40.7354L102.373 40.752L102.385 40.7666C102.844 41.3513 103.242 42.0012 103.579 42.7168L103.587 42.7334L103.597 42.749C103.947 43.3715 104.126 44.078 104.126 44.8799C104.126 46.1523 103.675 47.2099 102.763 48.083L102.755 48.0908C102.339 48.5066 101.804 48.8294 101.139 49.0508C101.378 48.9105 101.598 48.7423 101.798 48.5449L101.799 48.5459C102.568 47.828 102.948 46.8991 102.948 45.8037C102.948 44.9998 102.781 44.2447 102.444 43.5449L102.29 43.249C101.887 42.489 101.439 41.7721 100.946 41.0986C100.517 40.4113 100.109 39.7453 99.7217 39.1006C99.4085 38.4699 99.252 37.8023 99.252 37.0918C99.252 36.0903 99.6099 35.2561 100.341 34.5596C100.8 34.1463 101.355 33.8494 102.018 33.6768ZM104.812 33.6553C105.048 33.7195 105.259 33.8021 105.445 33.9023L105.465 33.9131L105.485 33.9219C105.763 34.0408 105.93 34.1527 106.021 34.2441C106.105 34.3274 106.106 34.3721 106.106 34.3857C106.106 34.7079 106.046 35.0795 105.921 35.5049C105.904 35.3453 105.876 35.1904 105.833 35.041H105.832C105.698 34.5168 105.434 34.0804 105.016 33.7812C104.95 33.7346 104.882 33.6936 104.812 33.6553Z" stroke="black"/>
<path d="M15.82 45.842C15.908 45.754 16.018 45.754 16.15 45.842C16.282 45.93 16.326 46.062 16.282 46.238C15.358 47.514 14.434 48.46 13.51 49.076C12.63 49.692 11.882 50 11.266 50C10.87 50 10.54 49.802 10.276 49.406C10.056 49.01 9.90202 48.482 9.81402 47.822C9.77002 47.118 9.79202 46.348 9.88002 45.512C10.012 44.632 10.21 43.73 10.474 42.806C9.28602 44.654 8.03202 46.26 6.71202 47.624C5.39202 48.944 4.11602 49.736 2.88402 50C2.09202 50 1.41002 49.626 0.838021 48.878C0.310021 48.086 0.0460205 46.876 0.0460205 45.248C0.0460205 43.796 0.332021 42.366 0.904021 40.958C1.52002 39.506 2.33402 38.208 3.34602 37.064C4.35802 35.876 5.52402 34.93 6.84402 34.226C8.16402 33.522 9.55002 33.17 11.002 33.17C11.794 33.17 12.476 33.258 13.048 33.434C13.62 33.61 14.148 33.874 14.632 34.226C14.896 34.006 15.248 33.808 15.688 33.632C16.172 33.412 16.612 33.302 17.008 33.302C17.228 33.302 17.294 33.412 17.206 33.632C16.194 34.864 15.314 36.228 14.566 37.724C13.862 39.22 13.312 40.672 12.916 42.08C12.52 43.488 12.256 44.742 12.124 45.842C12.036 46.898 12.124 47.624 12.388 48.02C12.608 48.328 13.004 48.35 13.576 48.086C14.148 47.778 14.896 47.03 15.82 45.842ZM4.33602 47.756C4.82002 47.756 5.43602 47.426 6.18402 46.766C6.97602 46.062 7.79002 45.16 8.62602 44.06C9.46202 42.96 10.276 41.728 11.068 40.364C11.904 38.956 12.63 37.548 13.246 36.14C13.07 35.568 12.652 35.106 11.992 34.754C11.376 34.402 10.65 34.226 9.81402 34.226C8.84602 34.226 7.92202 34.49 7.04202 35.018C6.20602 35.502 5.45802 36.206 4.79802 37.13C4.13802 38.01 3.61002 39.066 3.21402 40.298C2.81802 41.53 2.62002 42.894 2.62002 44.39C2.62002 45.358 2.77402 46.172 3.08202 46.832C3.43402 47.448 3.85202 47.756 4.33602 47.756Z" fill="black"/>
<path d="M36.0124 45.776C36.1444 45.688 36.2764 45.688 36.4084 45.776C36.5404 45.864 36.5844 45.996 36.5404 46.172C35.7924 47.184 34.9564 48.086 34.0324 48.878C33.1524 49.626 32.3164 50 31.5244 50C30.1604 50 29.4784 49.12 29.4784 47.36C29.4784 45.864 29.7424 44.214 30.2704 42.41C30.7984 40.562 31.5244 38.714 32.4484 36.866C32.6244 36.558 32.7124 36.25 32.7124 35.942C32.7124 35.458 32.4924 35.216 32.0524 35.216C30.4244 35.216 28.6204 36.338 26.6404 38.582C24.7044 40.826 22.9004 44.346 21.2284 49.142C21.1404 49.406 20.8984 49.626 20.5024 49.802C20.1064 49.934 19.7324 50 19.3804 50C18.8964 50 18.7204 49.802 18.8524 49.406C19.6004 47.514 20.3704 45.38 21.1624 43.004C21.9984 40.628 22.7244 38.274 23.3404 35.942C23.5164 35.106 23.3624 34.688 22.8784 34.688C22.4384 34.688 21.9984 34.908 21.5584 35.348C21.1184 35.788 20.6564 36.36 20.1724 37.064C20.0844 37.152 19.9744 37.13 19.8424 36.998C19.7544 36.866 19.7324 36.734 19.7764 36.602C20.2604 35.854 20.9204 35.084 21.7564 34.292C22.5924 33.5 23.4944 33.104 24.4624 33.104C25.5624 33.104 25.9364 33.852 25.5844 35.348C25.4084 36.316 25.1664 37.35 24.8584 38.45C24.5504 39.506 24.2204 40.562 23.8684 41.618C24.4844 40.43 25.2104 39.308 26.0464 38.252C26.8824 37.196 27.7404 36.294 28.6204 35.546C29.5444 34.798 30.4464 34.204 31.3264 33.764C32.2504 33.324 33.1084 33.104 33.9004 33.104C34.4284 33.104 34.8244 33.236 35.0884 33.5C35.3964 33.764 35.5504 34.072 35.5504 34.424C35.5504 34.996 35.4184 35.568 35.1544 36.14C34.2304 37.812 33.4384 39.572 32.7784 41.42C32.1624 43.224 31.8544 44.896 31.8544 46.436C31.8544 47.536 32.2064 48.086 32.9104 48.086C33.8344 48.086 34.8684 47.316 36.0124 45.776Z" fill="black"/>
<path d="M76.3394 0.103996C77.4834 0.103996 78.2094 0.543996 78.5174 1.424C78.8254 2.304 78.6714 3.404 78.0554 4.724C77.7034 4.988 77.4834 4.922 77.3954 4.526C77.4834 3.91 77.3074 3.426 76.8674 3.074C76.4274 2.722 75.8114 2.546 75.0194 2.546C73.4354 2.546 71.8294 3.096 70.2014 4.196C68.5734 5.296 66.9894 6.836 65.4494 8.816C63.9094 10.752 62.4134 13.04 60.9614 15.68C59.5094 18.32 58.1674 21.18 56.9354 24.26C55.7034 27.34 54.5814 30.574 53.5694 33.962C52.6014 37.306 51.8094 40.672 51.1934 44.06C51.0174 45.072 50.9734 45.974 51.0614 46.766C51.1494 47.514 51.4574 47.888 51.9854 47.888C52.4694 47.888 52.9534 47.646 53.4374 47.162C53.9214 46.634 54.3614 46.062 54.7574 45.446C54.8454 45.358 54.9554 45.358 55.0874 45.446C55.2634 45.534 55.3294 45.666 55.2854 45.842C55.0654 46.238 54.7574 46.678 54.3614 47.162C53.9654 47.646 53.5254 48.108 53.0414 48.548C52.6014 48.944 52.1394 49.296 51.6554 49.604C51.1714 49.868 50.7314 50 50.3354 50C49.5874 50 49.0594 49.692 48.7514 49.076C48.4874 48.416 48.3994 47.58 48.4874 46.568C48.5314 45.82 48.6194 45.116 48.7514 44.456C48.8834 43.796 49.0374 43.092 49.2134 42.344C48.8174 43.268 48.2894 44.17 47.6294 45.05C46.9694 45.886 46.2874 46.656 45.5834 47.36C44.8794 48.064 44.1754 48.658 43.4714 49.142C42.8114 49.582 42.2394 49.868 41.7554 50C41.0074 50 40.2814 49.692 39.5774 49.076C38.9174 48.416 38.5874 47.382 38.5874 45.974C38.5874 44.302 38.8734 42.696 39.4454 41.156C40.0174 39.572 40.7874 38.186 41.7554 36.998C42.7674 35.81 43.9114 34.864 45.1874 34.16C46.5074 33.412 47.9154 33.038 49.4114 33.038C49.8954 33.038 50.3134 33.104 50.6654 33.236C51.0614 33.368 51.4134 33.544 51.7214 33.764C52.5134 31.388 53.4594 28.902 54.5594 26.306C55.7034 23.71 56.9354 21.18 58.2554 18.716C59.5754 16.208 60.9614 13.832 62.4134 11.588C63.9094 9.344 65.4274 7.386 66.9674 5.714C68.5514 3.998 70.1354 2.634 71.7194 1.622C73.3034 0.609996 74.8434 0.103996 76.3394 0.103996ZM42.9434 47.69C43.4274 47.69 43.9994 47.426 44.6594 46.898C45.3634 46.326 46.0454 45.6 46.7054 44.72C47.4094 43.84 48.0694 42.828 48.6854 41.684C49.3454 40.496 49.8954 39.286 50.3354 38.054C50.4674 37.614 50.5994 37.196 50.7314 36.8C50.8634 36.404 50.9734 36.008 51.0614 35.612C50.8854 35.084 50.5554 34.71 50.0714 34.49C49.5874 34.226 49.0374 34.094 48.4214 34.094C47.4974 34.094 46.5954 34.38 45.7154 34.952C44.8354 35.48 44.0434 36.228 43.3394 37.196C42.6794 38.164 42.1294 39.308 41.6894 40.628C41.2934 41.948 41.0954 43.4 41.0954 44.984C41.0954 45.908 41.2714 46.59 41.6234 47.03C42.0194 47.47 42.4594 47.69 42.9434 47.69Z" fill="black"/>
<path d="M63.4138 34.952C63.4138 35.612 63.3478 36.382 63.2158 37.262C63.0838 38.142 62.9078 39.022 62.6878 39.902C63.5678 37.79 64.5358 36.14 65.5918 34.952C66.6478 33.72 67.7918 33.104 69.0238 33.104C69.5078 33.104 69.9478 33.236 70.3438 33.5C70.7398 33.764 70.9378 34.138 70.9378 34.622C70.9378 34.974 70.8058 35.436 70.5418 36.008C70.2778 36.536 70.0138 36.932 69.7498 37.196C69.4858 37.372 69.3538 37.306 69.3538 36.998C69.3538 36.25 68.8478 35.876 67.8358 35.876C66.2958 35.876 64.9098 37.042 63.6778 39.374C62.4458 41.662 61.2798 44.852 60.1798 48.944C60.0918 49.384 59.7838 49.67 59.2558 49.802C58.7718 49.934 58.3538 50 58.0018 50C57.5178 50 57.4078 49.758 57.6718 49.274C58.0678 48.35 58.4418 47.36 58.7938 46.304C59.1458 45.204 59.4758 44.104 59.7838 43.004C60.1358 41.904 60.4218 40.826 60.6418 39.77C60.8618 38.714 61.0378 37.746 61.1698 36.866C61.3458 35.546 61.1258 34.886 60.5098 34.886C60.1578 34.886 59.7398 35.084 59.2558 35.48C58.8158 35.876 58.3978 36.338 58.0018 36.866C57.8258 36.954 57.6718 36.954 57.5398 36.866C57.4078 36.734 57.3858 36.58 57.4738 36.404C58.1338 35.568 58.8598 34.82 59.6518 34.16C60.4878 33.456 61.2578 33.104 61.9618 33.104C62.9298 33.104 63.4138 33.72 63.4138 34.952Z" fill="black"/>
<path d="M81.9144 36.008C81.9144 36.624 81.6724 37.196 81.1884 37.724C80.7044 38.252 80.0444 38.736 79.2084 39.176C78.3724 39.572 77.4044 39.946 76.3044 40.298C75.2484 40.65 74.1264 40.98 72.9384 41.288C72.8944 41.772 72.8504 42.256 72.8064 42.74C72.8064 43.224 72.8064 43.752 72.8064 44.324C72.8064 45.424 73.0484 46.348 73.5324 47.096C74.0164 47.844 74.6984 48.218 75.5784 48.218C76.4584 48.218 77.2724 47.998 78.0204 47.558C78.8124 47.118 79.5164 46.524 80.1324 45.776C80.3084 45.688 80.4404 45.71 80.5284 45.842C80.6164 45.974 80.6164 46.128 80.5284 46.304C79.7804 47.316 78.8344 48.196 77.6904 48.944C76.5904 49.648 75.4244 50 74.1924 50C73.0484 50 72.1024 49.626 71.3544 48.878C70.6504 48.13 70.2984 47.03 70.2984 45.578C70.2984 44.258 70.5404 42.872 71.0244 41.42C71.5084 39.924 72.1464 38.56 72.9384 37.328C73.7304 36.096 74.6324 35.084 75.6444 34.292C76.7004 33.5 77.8004 33.104 78.9444 33.104C79.7804 33.104 80.4844 33.412 81.0564 34.028C81.6284 34.6 81.9144 35.26 81.9144 36.008ZM77.5584 34.82C76.5464 34.82 75.6444 35.26 74.8524 36.14C74.0604 37.02 73.4884 38.406 73.1364 40.298C75.2484 39.99 76.7884 39.55 77.7564 38.978C78.7684 38.362 79.2744 37.68 79.2744 36.932C79.2744 36.316 79.1204 35.81 78.8124 35.414C78.5044 35.018 78.0864 34.82 77.5584 34.82Z" fill="black"/>
<path d="M124.617 45.842C124.705 45.754 124.815 45.754 124.947 45.842C125.079 45.93 125.123 46.062 125.079 46.238C124.155 47.514 123.231 48.46 122.307 49.076C121.427 49.692 120.679 50 120.063 50C119.667 50 119.337 49.802 119.073 49.406C118.853 49.01 118.699 48.482 118.611 47.822C118.567 47.118 118.589 46.348 118.677 45.512C118.809 44.632 119.007 43.73 119.271 42.806C118.083 44.654 116.829 46.26 115.509 47.624C114.189 48.944 112.913 49.736 111.681 50C110.889 50 110.207 49.626 109.635 48.878C109.107 48.086 108.843 46.876 108.843 45.248C108.843 43.796 109.129 42.366 109.701 40.958C110.317 39.506 111.131 38.208 112.143 37.064C113.155 35.876 114.321 34.93 115.641 34.226C116.961 33.522 118.347 33.17 119.799 33.17C120.591 33.17 121.273 33.258 121.845 33.434C122.417 33.61 122.945 33.874 123.429 34.226C123.693 34.006 124.045 33.808 124.485 33.632C124.969 33.412 125.409 33.302 125.805 33.302C126.025 33.302 126.091 33.412 126.003 33.632C124.991 34.864 124.111 36.228 123.363 37.724C122.659 39.22 122.109 40.672 121.713 42.08C121.317 43.488 121.053 44.742 120.921 45.842C120.833 46.898 120.921 47.624 121.185 48.02C121.405 48.328 121.801 48.35 122.373 48.086C122.945 47.778 123.693 47.03 124.617 45.842ZM113.133 47.756C113.617 47.756 114.233 47.426 114.981 46.766C115.773 46.062 116.587 45.16 117.423 44.06C118.259 42.96 119.073 41.728 119.865 40.364C120.701 38.956 121.427 37.548 122.043 36.14C121.867 35.568 121.449 35.106 120.789 34.754C120.173 34.402 119.447 34.226 118.611 34.226C117.643 34.226 116.719 34.49 115.839 35.018C115.003 35.502 114.255 36.206 113.595 37.13C112.935 38.01 112.407 39.066 112.011 40.298C111.615 41.53 111.417 42.894 111.417 44.39C111.417 45.358 111.571 46.172 111.879 46.832C112.231 47.448 112.649 47.756 113.133 47.756Z" fill="black"/>
</svg>
