<svg width="127" height="50" viewBox="0 0 127 50" fill="none" xmlns="http://www.w3.org/2000/svg">
<path d="M15.82 45.842C15.908 45.754 16.018 45.754 16.15 45.842C16.282 45.93 16.326 46.062 16.282 46.238C15.358 47.514 14.434 48.46 13.51 49.076C12.63 49.692 11.882 50 11.266 50C10.87 50 10.54 49.802 10.276 49.406C10.056 49.01 9.90202 48.482 9.81402 47.822C9.77002 47.118 9.79202 46.348 9.88002 45.512C10.012 44.632 10.21 43.73 10.474 42.806C9.28602 44.654 8.03202 46.26 6.71202 47.624C5.39202 48.944 4.11602 49.736 2.88402 50C2.09202 50 1.41002 49.626 0.838021 48.878C0.310021 48.086 0.0460205 46.876 0.0460205 45.248C0.0460205 43.796 0.332021 42.366 0.904021 40.958C1.52002 39.506 2.33402 38.208 3.34602 37.064C4.35802 35.876 5.52402 34.93 6.84402 34.226C8.16402 33.522 9.55002 33.17 11.002 33.17C11.794 33.17 12.476 33.258 13.048 33.434C13.62 33.61 14.148 33.874 14.632 34.226C14.896 34.006 15.248 33.808 15.688 33.632C16.172 33.412 16.612 33.302 17.008 33.302C17.228 33.302 17.294 33.412 17.206 33.632C16.194 34.864 15.314 36.228 14.566 37.724C13.862 39.22 13.312 40.672 12.916 42.08C12.52 43.488 12.256 44.742 12.124 45.842C12.036 46.898 12.124 47.624 12.388 48.02C12.608 48.328 13.004 48.35 13.576 48.086C14.148 47.778 14.896 47.03 15.82 45.842ZM4.33602 47.756C4.82002 47.756 5.43602 47.426 6.18402 46.766C6.97602 46.062 7.79002 45.16 8.62602 44.06C9.46202 42.96 10.276 41.728 11.068 40.364C11.904 38.956 12.63 37.548 13.246 36.14C13.07 35.568 12.652 35.106 11.992 34.754C11.376 34.402 10.65 34.226 9.81402 34.226C8.84602 34.226 7.92202 34.49 7.04202 35.018C6.20602 35.502 5.45802 36.206 4.79802 37.13C4.13802 38.01 3.61002 39.066 3.21402 40.298C2.81802 41.53 2.62002 42.894 2.62002 44.39C2.62002 45.358 2.77402 46.172 3.08202 46.832C3.43402 47.448 3.85202 47.756 4.33602 47.756Z" fill="black"/>
<path d="M36.0124 45.776C36.1444 45.688 36.2764 45.688 36.4084 45.776C36.5404 45.864 36.5844 45.996 36.5404 46.172C35.7924 47.184 34.9564 48.086 34.0324 48.878C33.1524 49.626 32.3164 50 31.5244 50C30.1604 50 29.4784 49.12 29.4784 47.36C29.4784 45.864 29.7424 44.214 30.2704 42.41C30.7984 40.562 31.5244 38.714 32.4484 36.866C32.6244 36.558 32.7124 36.25 32.7124 35.942C32.7124 35.458 32.4924 35.216 32.0524 35.216C30.4244 35.216 28.6204 36.338 26.6404 38.582C24.7044 40.826 22.9004 44.346 21.2284 49.142C21.1404 49.406 20.8984 49.626 20.5024 49.802C20.1064 49.934 19.7324 50 19.3804 50C18.8964 50 18.7204 49.802 18.8524 49.406C19.6004 47.514 20.3704 45.38 21.1624 43.004C21.9984 40.628 22.7244 38.274 23.3404 35.942C23.5164 35.106 23.3624 34.688 22.8784 34.688C22.4384 34.688 21.9984 34.908 21.5584 35.348C21.1184 35.788 20.6564 36.36 20.1724 37.064C20.0844 37.152 19.9744 37.13 19.8424 36.998C19.7544 36.866 19.7324 36.734 19.7764 36.602C20.2604 35.854 20.9204 35.084 21.7564 34.292C22.5924 33.5 23.4944 33.104 24.4624 33.104C25.5624 33.104 25.9364 33.852 25.5844 35.348C25.4084 36.316 25.1664 37.35 24.8584 38.45C24.5504 39.506 24.2204 40.562 23.8684 41.618C24.4844 40.43 25.2104 39.308 26.0464 38.252C26.8824 37.196 27.7404 36.294 28.6204 35.546C29.5444 34.798 30.4464 34.204 31.3264 33.764C32.2504 33.324 33.1084 33.104 33.9004 33.104C34.4284 33.104 34.8244 33.236 35.0884 33.5C35.3964 33.764 35.5504 34.072 35.5504 34.424C35.5504 34.996 35.4184 35.568 35.1544 36.14C34.2304 37.812 33.4384 39.572 32.7784 41.42C32.1624 43.224 31.8544 44.896 31.8544 46.436C31.8544 47.536 32.2064 48.086 32.9104 48.086C33.8344 48.086 34.8684 47.316 36.0124 45.776Z" fill="black"/>
<path d="M76.3394 0.103996C77.4834 0.103996 78.2094 0.543996 78.5174 1.424C78.8254 2.304 78.6714 3.404 78.0554 4.724C77.7034 4.988 77.4834 4.922 77.3954 4.526C77.4834 3.91 77.3074 3.426 76.8674 3.074C76.4274 2.722 75.8114 2.546 75.0194 2.546C73.4354 2.546 71.8294 3.096 70.2014 4.196C68.5734 5.296 66.9894 6.836 65.4494 8.816C63.9094 10.752 62.4134 13.04 60.9614 15.68C59.5094 18.32 58.1674 21.18 56.9354 24.26C55.7034 27.34 54.5814 30.574 53.5694 33.962C52.6014 37.306 51.8094 40.672 51.1934 44.06C51.0174 45.072 50.9734 45.974 51.0614 46.766C51.1494 47.514 51.4574 47.888 51.9854 47.888C52.4694 47.888 52.9534 47.646 53.4374 47.162C53.9214 46.634 54.3614 46.062 54.7574 45.446C54.8454 45.358 54.9554 45.358 55.0874 45.446C55.2634 45.534 55.3294 45.666 55.2854 45.842C55.0654 46.238 54.7574 46.678 54.3614 47.162C53.9654 47.646 53.5254 48.108 53.0414 48.548C52.6014 48.944 52.1394 49.296 51.6554 49.604C51.1714 49.868 50.7314 50 50.3354 50C49.5874 50 49.0594 49.692 48.7514 49.076C48.4874 48.416 48.3994 47.58 48.4874 46.568C48.5314 45.82 48.6194 45.116 48.7514 44.456C48.8834 43.796 49.0374 43.092 49.2134 42.344C48.8174 43.268 48.2894 44.17 47.6294 45.05C46.9694 45.886 46.2874 46.656 45.5834 47.36C44.8794 48.064 44.1754 48.658 43.4714 49.142C42.8114 49.582 42.2394 49.868 41.7554 50C41.0074 50 40.2814 49.692 39.5774 49.076C38.9174 48.416 38.5874 47.382 38.5874 45.974C38.5874 44.302 38.8734 42.696 39.4454 41.156C40.0174 39.572 40.7874 38.186 41.7554 36.998C42.7674 35.81 43.9114 34.864 45.1874 34.16C46.5074 33.412 47.9154 33.038 49.4114 33.038C49.8954 33.038 50.3134 33.104 50.6654 33.236C51.0614 33.368 51.4134 33.544 51.7214 33.764C52.5134 31.388 53.4594 28.902 54.5594 26.306C55.7034 23.71 56.9354 21.18 58.2554 18.716C59.5754 16.208 60.9614 13.832 62.4134 11.588C63.9094 9.344 65.4274 7.386 66.9674 5.714C68.5514 3.998 70.1354 2.634 71.7194 1.622C73.3034 0.609996 74.8434 0.103996 76.3394 0.103996ZM42.9434 47.69C43.4274 47.69 43.9994 47.426 44.6594 46.898C45.3634 46.326 46.0454 45.6 46.7054 44.72C47.4094 43.84 48.0694 42.828 48.6854 41.684C49.3454 40.496 49.8954 39.286 50.3354 38.054C50.4674 37.614 50.5994 37.196 50.7314 36.8C50.8634 36.404 50.9734 36.008 51.0614 35.612C50.8854 35.084 50.5554 34.71 50.0714 34.49C49.5874 34.226 49.0374 34.094 48.4214 34.094C47.4974 34.094 46.5954 34.38 45.7154 34.952C44.8354 35.48 44.0434 36.228 43.3394 37.196C42.6794 38.164 42.1294 39.308 41.6894 40.628C41.2934 41.948 41.0954 43.4 41.0954 44.984C41.0954 45.908 41.2714 46.59 41.6234 47.03C42.0194 47.47 42.4594 47.69 42.9434 47.69Z" fill="url(#paint0_linear_22_3)"/>
<path d="M63.4138 34.952C63.4138 35.612 63.3478 36.382 63.2158 37.262C63.0838 38.142 62.9078 39.022 62.6878 39.902C63.5678 37.79 64.5358 36.14 65.5918 34.952C66.6478 33.72 67.7918 33.104 69.0238 33.104C69.5078 33.104 69.9478 33.236 70.3438 33.5C70.7398 33.764 70.9378 34.138 70.9378 34.622C70.9378 34.974 70.8058 35.436 70.5418 36.008C70.2778 36.536 70.0138 36.932 69.7498 37.196C69.4858 37.372 69.3538 37.306 69.3538 36.998C69.3538 36.25 68.8478 35.876 67.8358 35.876C66.2958 35.876 64.9098 37.042 63.6778 39.374C62.4458 41.662 61.2798 44.852 60.1798 48.944C60.0918 49.384 59.7838 49.67 59.2558 49.802C58.7718 49.934 58.3538 50 58.0018 50C57.5178 50 57.4078 49.758 57.6718 49.274C58.0678 48.35 58.4418 47.36 58.7938 46.304C59.1458 45.204 59.4758 44.104 59.7838 43.004C60.1358 41.904 60.4218 40.826 60.6418 39.77C60.8618 38.714 61.0378 37.746 61.1698 36.866C61.3458 35.546 61.1258 34.886 60.5098 34.886C60.1578 34.886 59.7398 35.084 59.2558 35.48C58.8158 35.876 58.3978 36.338 58.0018 36.866C57.8258 36.954 57.6718 36.954 57.5398 36.866C57.4078 36.734 57.3858 36.58 57.4738 36.404C58.1338 35.568 58.8598 34.82 59.6518 34.16C60.4878 33.456 61.2578 33.104 61.9618 33.104C62.9298 33.104 63.4138 33.72 63.4138 34.952Z" fill="black"/>
<path d="M81.9144 36.008C81.9144 36.624 81.6724 37.196 81.1884 37.724C80.7044 38.252 80.0444 38.736 79.2084 39.176C78.3724 39.572 77.4044 39.946 76.3044 40.298C75.2484 40.65 74.1264 40.98 72.9384 41.288C72.8944 41.772 72.8504 42.256 72.8064 42.74C72.8064 43.224 72.8064 43.752 72.8064 44.324C72.8064 45.424 73.0484 46.348 73.5324 47.096C74.0164 47.844 74.6984 48.218 75.5784 48.218C76.4584 48.218 77.2724 47.998 78.0204 47.558C78.8124 47.118 79.5164 46.524 80.1324 45.776C80.3084 45.688 80.4404 45.71 80.5284 45.842C80.6164 45.974 80.6164 46.128 80.5284 46.304C79.7804 47.316 78.8344 48.196 77.6904 48.944C76.5904 49.648 75.4244 50 74.1924 50C73.0484 50 72.1024 49.626 71.3544 48.878C70.6504 48.13 70.2984 47.03 70.2984 45.578C70.2984 44.258 70.5404 42.872 71.0244 41.42C71.5084 39.924 72.1464 38.56 72.9384 37.328C73.7304 36.096 74.6324 35.084 75.6444 34.292C76.7004 33.5 77.8004 33.104 78.9444 33.104C79.7804 33.104 80.4844 33.412 81.0564 34.028C81.6284 34.6 81.9144 35.26 81.9144 36.008ZM77.5584 34.82C76.5464 34.82 75.6444 35.26 74.8524 36.14C74.0604 37.02 73.4884 38.406 73.1364 40.298C75.2484 39.99 76.7884 39.55 77.7564 38.978C78.7684 38.362 79.2744 37.68 79.2744 36.932C79.2744 36.316 79.1204 35.81 78.8124 35.414C78.5044 35.018 78.0864 34.82 77.5584 34.82Z" fill="black"/>
<path d="M91.092 33.104C91.972 33.104 92.698 33.258 93.27 33.566C93.886 33.83 94.194 34.138 94.194 34.49C94.194 34.974 94.084 35.524 93.864 36.14C93.688 36.756 93.49 37.262 93.27 37.658C93.182 37.746 93.05 37.768 92.874 37.724C92.742 37.636 92.698 37.526 92.742 37.394C92.874 37.086 92.962 36.734 93.006 36.338C93.05 35.942 93.028 35.59 92.94 35.282C92.72 34.402 92.104 33.962 91.092 33.962C90.344 33.962 89.728 34.182 89.244 34.622C88.804 35.062 88.584 35.722 88.584 36.602C88.584 37.306 88.76 37.988 89.112 38.648C89.508 39.264 89.926 39.902 90.366 40.562C90.85 41.178 91.268 41.86 91.62 42.608C92.016 43.312 92.214 44.104 92.214 44.984C92.214 46.392 91.708 47.58 90.696 48.548C89.728 49.516 88.254 50 86.274 50C84.91 50 83.788 49.758 82.908 49.274C82.028 48.79 81.588 48.284 81.588 47.756C81.588 47.36 81.83 46.766 82.314 45.974C82.798 45.182 83.348 44.544 83.964 44.06C84.096 43.972 84.206 43.994 84.294 44.126C84.426 44.258 84.448 44.39 84.36 44.522C84.008 44.874 83.744 45.292 83.568 45.776C83.392 46.216 83.348 46.612 83.436 46.964C83.568 47.712 83.898 48.284 84.426 48.68C84.998 49.032 85.658 49.208 86.406 49.208C87.55 49.208 88.43 48.9 89.046 48.284C89.706 47.668 90.036 46.876 90.036 45.908C90.036 45.072 89.838 44.302 89.442 43.598C89.046 42.85 88.606 42.146 88.122 41.486C87.682 40.782 87.264 40.1 86.868 39.44C86.516 38.736 86.34 37.988 86.34 37.196C86.34 36.052 86.758 35.084 87.594 34.292C88.474 33.5 89.64 33.104 91.092 33.104Z" fill="black"/>
<path d="M103.531 33.104C104.411 33.104 105.137 33.258 105.709 33.566C106.325 33.83 106.633 34.138 106.633 34.49C106.633 34.974 106.523 35.524 106.303 36.14C106.127 36.756 105.929 37.262 105.709 37.658C105.621 37.746 105.489 37.768 105.313 37.724C105.181 37.636 105.137 37.526 105.181 37.394C105.313 37.086 105.401 36.734 105.445 36.338C105.489 35.942 105.467 35.59 105.379 35.282C105.159 34.402 104.543 33.962 103.531 33.962C102.783 33.962 102.167 34.182 101.683 34.622C101.243 35.062 101.023 35.722 101.023 36.602C101.023 37.306 101.199 37.988 101.551 38.648C101.947 39.264 102.365 39.902 102.805 40.562C103.289 41.178 103.707 41.86 104.059 42.608C104.455 43.312 104.653 44.104 104.653 44.984C104.653 46.392 104.147 47.58 103.135 48.548C102.167 49.516 100.693 50 98.7134 50C97.3494 50 96.2274 49.758 95.3474 49.274C94.4674 48.79 94.0274 48.284 94.0274 47.756C94.0274 47.36 94.2694 46.766 94.7534 45.974C95.2374 45.182 95.7874 44.544 96.4034 44.06C96.5354 43.972 96.6454 43.994 96.7334 44.126C96.8654 44.258 96.8874 44.39 96.7994 44.522C96.4474 44.874 96.1834 45.292 96.0074 45.776C95.8314 46.216 95.7874 46.612 95.8754 46.964C96.0074 47.712 96.3374 48.284 96.8654 48.68C97.4374 49.032 98.0974 49.208 98.8454 49.208C99.9894 49.208 100.869 48.9 101.485 48.284C102.145 47.668 102.475 46.876 102.475 45.908C102.475 45.072 102.277 44.302 101.881 43.598C101.485 42.85 101.045 42.146 100.561 41.486C100.121 40.782 99.7034 40.1 99.3074 39.44C98.9554 38.736 98.7794 37.988 98.7794 37.196C98.7794 36.052 99.1974 35.084 100.033 34.292C100.913 33.5 102.079 33.104 103.531 33.104Z" fill="black"/>
<path d="M124.617 45.842C124.705 45.754 124.815 45.754 124.947 45.842C125.079 45.93 125.123 46.062 125.079 46.238C124.155 47.514 123.231 48.46 122.307 49.076C121.427 49.692 120.679 50 120.063 50C119.667 50 119.337 49.802 119.073 49.406C118.853 49.01 118.699 48.482 118.611 47.822C118.567 47.118 118.589 46.348 118.677 45.512C118.809 44.632 119.007 43.73 119.271 42.806C118.083 44.654 116.829 46.26 115.509 47.624C114.189 48.944 112.913 49.736 111.681 50C110.889 50 110.207 49.626 109.635 48.878C109.107 48.086 108.843 46.876 108.843 45.248C108.843 43.796 109.129 42.366 109.701 40.958C110.317 39.506 111.131 38.208 112.143 37.064C113.155 35.876 114.321 34.93 115.641 34.226C116.961 33.522 118.347 33.17 119.799 33.17C120.591 33.17 121.273 33.258 121.845 33.434C122.417 33.61 122.945 33.874 123.429 34.226C123.693 34.006 124.045 33.808 124.485 33.632C124.969 33.412 125.409 33.302 125.805 33.302C126.025 33.302 126.091 33.412 126.003 33.632C124.991 34.864 124.111 36.228 123.363 37.724C122.659 39.22 122.109 40.672 121.713 42.08C121.317 43.488 121.053 44.742 120.921 45.842C120.833 46.898 120.921 47.624 121.185 48.02C121.405 48.328 121.801 48.35 122.373 48.086C122.945 47.778 123.693 47.03 124.617 45.842ZM113.133 47.756C113.617 47.756 114.233 47.426 114.981 46.766C115.773 46.062 116.587 45.16 117.423 44.06C118.259 42.96 119.073 41.728 119.865 40.364C120.701 38.956 121.427 37.548 122.043 36.14C121.867 35.568 121.449 35.106 120.789 34.754C120.173 34.402 119.447 34.226 118.611 34.226C117.643 34.226 116.719 34.49 115.839 35.018C115.003 35.502 114.255 36.206 113.595 37.13C112.935 38.01 112.407 39.066 112.011 40.298C111.615 41.53 111.417 42.894 111.417 44.39C111.417 45.358 111.571 46.172 111.879 46.832C112.231 47.448 112.649 47.756 113.133 47.756Z" fill="black"/>
<defs>
<linearGradient id="paint0_linear_22_3" x1="63.0433" y1="0.103996" x2="63.0433" y2="50" gradientUnits="userSpaceOnUse">
<stop stop-color="#FF0033"/>
<stop offset="1" stop-color="#561515"/>
</linearGradient>
</defs>
</svg>
