<svg width="61" height="53" viewBox="0 0 61 53" fill="none" xmlns="http://www.w3.org/2000/svg">
<g clip-path="url(#clip0_9_7)">
<path d="M49.4979 17.0142C48.8588 16.8032 48.2196 16.604 47.5805 16.4165C47.687 15.9829 47.7817 15.5493 47.8764 15.1157C49.3322 8.13135 48.3735 2.51807 45.1423 0.666503C42.0294 -1.10303 36.9518 0.736817 31.815 5.1665C31.3061 5.6001 30.8089 6.05713 30.3355 6.51416C30.0159 6.20947 29.6845 5.90478 29.3531 5.61181C23.9678 0.87744 18.5706 -1.11475 15.3394 0.748535C12.2384 2.52978 11.3152 7.81494 12.6171 14.4243C12.7473 15.0806 12.8893 15.7251 13.055 16.3813C12.2975 16.5923 11.5519 16.8267 10.8536 17.0728C4.53316 19.2407 0 22.6626 0 26.2017C0 29.8579 4.82906 33.5259 11.398 35.7524C11.9306 35.9282 12.4632 36.104 13.0077 36.2563C12.8302 36.9595 12.6763 37.6509 12.5343 38.3657C11.2915 44.8696 12.262 50.0259 15.363 51.7954C18.5588 53.6235 23.9323 51.7485 29.1637 47.2134C29.578 46.8501 29.9923 46.4751 30.4065 46.0767C30.9273 46.5806 31.4718 47.061 32.0162 47.5298C37.082 51.8423 42.0886 53.5884 45.1778 51.8188C48.3735 49.9907 49.415 44.4478 48.0657 37.6978C47.9592 37.1821 47.8409 36.6548 47.7107 36.1157C48.0894 36.0103 48.4563 35.8931 48.8232 35.7759C55.6526 33.5376 60.6 29.9165 60.6 26.2017C60.6 22.6509 55.9366 19.2056 49.4979 17.0142ZM33.4839 7.06494C37.8868 3.26807 41.9939 1.77979 43.864 2.84619C45.8643 3.98291 46.6336 8.57666 45.379 14.6118C45.2961 15.0103 45.2133 15.397 45.1068 15.7837C42.4792 15.1978 39.8161 14.7759 37.1412 14.5415C35.6025 12.3618 33.9218 10.2759 32.0991 8.31885C32.5607 7.88525 33.0104 7.4751 33.4839 7.06494ZM19.7897 32.2837C20.3933 33.3032 21.0088 34.3228 21.6598 35.3188C19.8134 35.1196 17.9788 34.8267 16.1679 34.4399C16.6887 32.7524 17.3396 31.0063 18.0971 29.2251C18.6416 30.2563 19.1979 31.2759 19.7897 32.2837ZM16.2034 18.186C17.9078 17.811 19.7187 17.5063 21.6006 17.272C20.9733 18.2446 20.3578 19.2407 19.7779 20.2485C19.1979 21.2446 18.6298 22.2642 18.0971 23.2954C17.3515 21.5493 16.7242 19.8384 16.2034 18.186ZM19.4464 26.2603C20.2276 24.6431 21.0798 23.061 21.9793 21.5024C22.8789 19.9438 23.8494 18.4321 24.8673 16.9438C26.6427 16.8149 28.4536 16.7446 30.3 16.7446C32.1464 16.7446 33.9691 16.8149 35.7327 16.9438C36.7388 18.4204 37.6975 19.9321 38.6088 21.479C39.5202 23.0259 40.3724 24.6079 41.1772 26.2134C40.3842 27.8306 39.532 29.4243 38.6207 30.9946C37.7211 32.5532 36.7624 34.0649 35.7564 35.5649C33.9928 35.6938 32.1582 35.7524 30.3 35.7524C28.4418 35.7524 26.6427 35.6938 24.9028 35.5884C23.8731 34.1001 22.9025 32.5767 21.9912 31.0181C21.0798 29.4595 20.2395 27.8774 19.4464 26.2603ZM40.8221 32.2603C41.4258 31.229 41.9939 30.186 42.5502 29.1313C43.3077 30.8306 43.9705 32.5532 44.5505 34.3228C42.7159 34.7329 40.8577 35.0493 38.9876 35.2603C39.6267 34.2759 40.2304 33.2681 40.8221 32.2603ZM42.5265 23.2954C41.9702 22.2642 41.4021 21.2329 40.8103 20.2251C40.2304 19.229 39.6267 18.2446 38.9994 17.272C40.905 17.5063 42.7277 17.8228 44.4321 18.2095C43.8877 19.9438 43.2485 21.6313 42.5265 23.2954ZM30.3237 10.1118C31.5664 11.4478 32.7382 12.854 33.8271 14.3071C31.4836 14.2017 29.1282 14.2017 26.7847 14.3071C27.9446 12.7954 29.1401 11.3892 30.3237 10.1118ZM16.594 2.92822C18.5824 1.77978 22.9972 3.42041 27.6488 7.49853C27.9447 7.75635 28.2405 8.0376 28.5483 8.31885C26.7137 10.2759 25.0212 12.3618 23.4707 14.5415C20.7957 14.7759 18.1445 15.186 15.5169 15.7603C15.363 15.1626 15.2329 14.5532 15.1027 13.9438C13.9901 8.27197 14.7239 3.99463 16.594 2.92822ZM13.6942 33.8188C13.1971 33.6782 12.7118 33.5259 12.2265 33.3618C9.70547 32.5767 6.84117 31.3345 4.76988 29.7056C3.57445 28.8853 2.76961 27.6196 2.54473 26.2017C2.54473 24.0571 6.28488 21.3149 11.6821 19.4517C12.3567 19.2173 13.0432 19.0063 13.7297 18.8071C14.5345 21.3501 15.5051 23.8462 16.6295 26.2603C15.4932 28.7095 14.5109 31.2407 13.6942 33.8188ZM27.4949 45.3032C25.542 47.0728 23.2813 48.479 20.8194 49.4399C19.5056 50.061 17.9906 50.1196 16.6413 49.5923C14.7594 48.5142 13.9782 44.3774 15.0435 38.811C15.1737 38.1548 15.3157 37.4985 15.4814 36.854C18.1327 37.4165 20.8076 37.8032 23.518 38.0024C25.0804 40.1938 26.7966 42.2915 28.6311 44.2603C28.2524 44.6235 27.8736 44.9751 27.4949 45.3032ZM30.3947 42.4556C29.1874 41.1665 27.9802 39.7368 26.8084 38.2017C27.9446 38.2485 29.1164 38.272 30.3 38.272C31.5191 38.272 32.7145 38.2485 33.8981 38.1899C32.8092 39.6782 31.6375 41.0962 30.3947 42.4556ZM45.8643 45.9712C45.7577 47.4009 45.0476 48.7368 43.9113 49.6392C42.0294 50.7173 38.017 49.311 33.6851 45.6313C33.188 45.2095 32.6909 44.7524 32.1819 44.2837C33.9928 42.3032 35.6617 40.2056 37.1767 38.0024C39.8871 37.7798 42.5857 37.3696 45.2488 36.772C45.3671 37.2524 45.4737 37.7329 45.5684 38.2017C46.1483 40.7329 46.243 43.3696 45.8643 45.9712ZM48.0184 33.3735C47.687 33.479 47.3556 33.5845 47.0123 33.6782C46.1838 31.1235 45.1659 28.6274 43.9942 26.2017C45.1304 23.811 46.0891 21.3501 46.894 18.8306C47.5095 19.0063 48.1013 19.1938 48.6694 19.3813C54.1849 21.2563 58.0553 24.0454 58.0553 26.1782C58.0553 28.4751 53.9245 31.4399 48.0184 33.3735ZM30.3 31.6157C33.2945 31.6157 35.7209 29.2134 35.7209 26.2485C35.7209 23.2837 33.2945 20.8813 30.3 20.8813C27.3055 20.8813 24.8791 23.2837 24.8791 26.2485C24.8791 29.2134 27.3055 31.6157 30.3 31.6157Z" fill="url(#paint0_linear_9_7)"/>
</g>
<defs>
<linearGradient id="paint0_linear_9_7" x1="30.3" y1="0" x2="30.3" y2="52.5028" gradientUnits="userSpaceOnUse">
<stop stop-color="#5ED3F3"/>
<stop offset="1" stop-color="#2FB5E0"/>
</linearGradient>
<clipPath id="clip0_9_7">
<rect width="61" height="53" fill="white"/>
</clipPath>
</defs>
</svg>
